<svg xmlns="http://www.w3.org/2000/svg" width="16" height="16" viewBox="0 0 16 16">
    <g data-name="그룹 43765" transform="translate(-208 -240)">
        <g data-name="그룹 43561">
            <g data-name="합치기 74" style="fill:none">
                <path d="M-9370.814-3907.005a1.146 1.146 0 0 1-.838-.35 1.139 1.139 0 0 1-.348-.835v-9.618a1.148 1.148 0 0 1 .348-.84 1.139 1.139 0 0 1 .838-.353h4.913a1.126 1.126 0 0 1 .466.1 1.24 1.24 0 0 1 .388.261l2.687 2.686a1.239 1.239 0 0 1 .261.388 1.129 1.129 0 0 1 .1.466v6.908a1.136 1.136 0 0 1-.353.835 1.154 1.154 0 0 1-.843.35z" style="stroke:none" transform="translate(9583 4161.001)"/>
                <path d="M-9363.499-3908.505v-6.464l-2.532-2.532h-4.469v8.996h7.001m.305 1.5h-7.62c-.326 0-.605-.118-.838-.35a1.139 1.139 0 0 1-.348-.836v-9.617c0-.325.115-.607.348-.84.233-.235.512-.353.838-.353h4.913c.158 0 .313.033.465.101.15.066.28.153.388.261l2.687 2.686c.108.109.195.238.26.389.069.152.102.308.102.465v6.908c0 .325-.118.602-.353.835-.233.233-.515.35-.842.35z" style="fill:#666;stroke:none" transform="translate(9583 4161.001)"/>
            </g>
            <path data-name="패스 26375" d="m0 0 4 4H1a1 1 0 0 1-1-1z" transform="translate(217 242)" style="fill:#666"/>
        </g>
        <rect data-name="사각형 461867" width="5" height="1.5" rx=".75" transform="translate(213.5 247)" style="fill:#666"/>
        <rect data-name="사각형 461868" width="5" height="1.5" rx=".75" transform="translate(213.5 249.749)" style="fill:#666"/>
    </g>
</svg>
